<svg xmlns="http://www.w3.org/2000/svg" viewBox="0 0 32 32"><title>  print</title><desc>  Created with Sketch.</desc><path d="M6.4 11.9c0-0.6 0.5-1.1 1.1-1.1h3.3c0.6 0 1 0.5 1 1.1s-0.4 1-1 1H7.4C6.8 12.9 6.4 12.5 6.4 11.9zM29.2 21.9h-4.1L24.7 19c-0.1-0.6-0.7-1-1.3-1H8.6c-0.7 0-1.2 0.4-1.2 1l-0.4 2.9H2.7V8.3l26.4 0L29.2 21.9 29.2 21.9zM8.3 29.5l1.3-9h12.8l1.3 9H8.3L8.3 29.5zM10.4 5.4h11.2V2.2H10.4V5.4zM30.6 5.4h-6.9V1.1c0-0.6-0.4-1.1-0.9-1.1H9.2C8.6 0 8.3 0.5 8.3 1.1v4.3h-7C0.6 5.4 0 6 0 6.8v16.5c0 0.8 0.6 1.5 1.4 1.5h5.1l-0.8 5.6c-0.1 0.4 0.1 0.8 0.3 1.1S6.5 32 6.9 32h18.2c0.4 0 0.7-0.2 1-0.5 0.2-0.3 0.3-0.7 0.2-1l-0.8-5.7h5.1c0.8 0 1.4-0.7 1.4-1.5V6.8C32 6 31.4 5.4 30.6 5.4L30.6 5.4z"/></svg>