<svg id="Layer_1" data-name="Layer 1" xmlns="http://www.w3.org/2000/svg" viewBox="0 0 76 76"><defs><style>.cls-1{fill:#fff;}</style></defs><title>linkedin</title><g id="LinKeDin"><path class="cls-1" d="M38,0A38,38,0,1,0,76,38,38,38,0,0,0,38,0ZM28.5,54.9h-7v-23h7Zm-3.9-25h0a4.15,4.15,0,1,1,.1-8.3A4.1,4.1,0,0,1,29,25.7,4.15,4.15,0,0,1,24.6,29.9Zm32.9,25h-9V43.2c0-3.1-1-5.2-3.8-5.2a4.08,4.08,0,0,0-3.9,2.8,5.55,5.55,0,0,0-.2,1.9V54.9H32.9s.1-21,0-23h7.7v3.9A8.62,8.62,0,0,1,48.1,32c5.1,0,9.5,3.3,9.5,10.3V54.9Z"/></g></svg>