<svg xmlns="http://www.w3.org/2000/svg" viewBox="0 0 24 34"><title>  location</title><desc>  Created with Sketch.</desc><path d="M12 15.5c-1.8 0-3.2-1.5-3.2-3.3 0-1.9 1.4-3.4 3.2-3.4s3.2 1.5 3.2 3.4C15.2 14 13.8 15.5 12 15.5M12 6.3c-3.2 0-5.8 2.6-5.8 5.9 0 3.2 2.6 5.8 5.8 5.8 3.2 0 5.8-2.6 5.8-5.8C17.8 8.9 15.2 6.3 12 6.3M12 29.9c-1-1.1-2.5-2.9-4.1-5.1 -3.3-4.7-5-8.8-5-12.1 0-9.1 7-9.8 9.1-9.8 8.4 0 9.1 7.5 9.1 9.8C21.1 19.1 14.6 27 12 29.9M20.2 2.9C18.1 1 15.2 0 12 0 8.8 0 5.9 1 3.8 2.9 1.3 5.1 0 8.5 0 12.7 0 21.9 10.5 32.6 11 33c0.2 0.3 0.6 0.5 1 0.5s0.8-0.2 1-0.5c0.5-0.4 11-11.1 11-20.3C24 8.5 22.7 5.1 20.2 2.9"/></svg>