<?xml version="1.0" encoding="UTF-8" standalone="no"?>
<svg xmlns="http://www.w3.org/2000/svg" height="164px" width="164px" version="1.1" xmlns:xlink="http://www.w3.org/1999/xlink" viewBox="0 0 164 164"><!-- Generator: Sketch 39.1 (31720) - http://www.bohemiancoding.com/sketch -->
 <title>Dara Legal</title>
 <desc>Dara Legal logo, designed by Jed Dela Cruz.</desc>
 <g id="Welcome" fill-rule="evenodd" fill="none">
  <g id="D" transform="translate(-240 -31)">
   <g id="navigation" transform="translate(240 31)">
    <g id="logo">
     <g id="Layer_2">
      <g id="Layer_1-2">
       <path id="Shape" stroke="#fff" fill="#000" d="m35.995 42.583h92.265"/>
       <path id="Oval" fill="#87CBC3" d="m81.76 163.52c45.15 0 81.76-36.61 81.76-81.76 0-45.155-36.61-81.76-81.76-81.76-45.155 0-81.76 36.605-81.76 81.76 0 45.15 36.605 81.76 81.76 81.76z"/>
       <path id="Shape" fill="#602D8F" d="m65.402 94.625h-15.212l0.155-2.234 1.584-0.198c1.215-0.099 1.724-0.353 1.724-0.961v-24.996c0-0.452-0.254-0.82-2.092-0.961l-1.216-0.241-0.155-2.233 15.057-0.198c12.116-0.156 19.34 6.362 19.34 15.368 0 8.61-7.168 16.654-19.185 16.654zm-1.414-29.463h-1.781v26.565l3.619 0.763c5.91-0.254 9.416-6.107 9.416-13.332-0.014-8.341-3.421-13.996-11.254-13.996z"/>
       <path id="Shape" fill="#602D8F" d="m113.81 94.625h-26.056l0.156-2.234 1.583-0.311c1.216-0.099 1.725-0.353 1.725-0.961v-24.784c0-0.452-0.255-0.82-2.092-0.961l-1.23-0.34-0.156-2.233h15.47l-0.19 2.233-1.52 0.312c-1.42 0.098-1.729 0.452-1.729 0.961v25.773h0.099c6.81 0 7.63-0.608 9.32-5.443l1.02-2.644h4.58l-0.98 10.632z"/>
       <rect id="Rectangle-path" height="2.05" width="113.1" y="103.35" x="25.448" fill="#fff"/>
       <rect id="Rectangle-path" height="2.05" width="113.1" y="53.823" x="25.448" fill="#fff"/>
       <polygon id="Shape" points="50.105 129.48 51.957 130.18 48.578 139.13 53.243 140.9 52.621 142.54 46.09 140.08" fill="#fff"/>
       <polygon id="Shape" points="61.698 133.42 69.276 135.02 68.922 136.73 63.267 135.54 62.659 138.37 68.187 139.53 67.862 141.28 62.334 140.12 61.698 143.19 67.353 144.36 67 146.07 59.379 144.5" fill="#fff"/>
       <path id="Shape" fill="#fff" d="m80.827 135.72c1.828 0 3.53 0.93 4.51 2.48l-1.655 0.87c-0.638-0.94-1.687-1.53-2.827-1.58-2.178 0.07-3.926 1.82-3.979 4-0.052 2.18 1.608 4.02 3.781 4.19 0.984 0.01 1.941-0.32 2.7-0.95v-1.77l-3.379-0.08v-1.76l5.359 0.13-0.099 4.24c-1.197 1.3-2.891 2.01-4.652 1.97-2.155 0.04-4.159-1.11-5.219-2.98-1.06-1.88-1.004-4.19 0.145-6.01 1.149-1.83 3.206-2.88 5.357-2.73l-0.042-0.02z"/>
       <path id="Shape" fill="#fff" d="m100.46 143.3l-5.283 0.91-0.453 2.27-2.135 0.37 2.474-11.9 2.446-0.43 6.291 10.41-2.13 0.37-1.21-2zm-5.029-0.9l4.241-0.72-3.11-5.28-1.131 6z"/>
       <polygon id="Shape" points="106.71 132.29 108.58 131.62 111.76 140.66 116.47 139 117.05 140.66 110.47 142.98" fill="#fff"/>
       <path id="Shape" fill="#fff" d="m89.507 119.62l-2.644-6.16h1.414c0.234 0 0.424-0.19 0.424-0.43 0-0.23-0.19-0.42-0.424-0.42h-6.277c0.042-0.33-0.108-0.65-0.386-0.83-0.278-0.17-0.633-0.17-0.911 0-0.277 0.18-0.428 0.5-0.385 0.83h-5.967c-0.234 0-0.424 0.19-0.424 0.42 0 0.24 0.19 0.43 0.424 0.43h0.99l-2.644 6.16c-0.011 0.06-0.011 0.11 0 0.17 0 1.63 1.323 2.96 2.955 2.96s2.955-1.33 2.955-2.96c0.011-0.06 0.011-0.11 0-0.17l-2.644-6.16h4.369v11.39h-4.242v1.68h10.547v-1.68h-4.637v-11.39h4.241l-2.643 6.16c-0.012 0.06-0.012 0.11 0 0.17 0 1.63 1.323 2.96 2.954 2.96 1.632 0 2.955-1.33 2.955-2.96 0.012-0.06 0.012-0.11 0-0.17zm-11.819 0.17h-4.171l2.079-4.83 2.092 4.83zm6.829 0l2.078-4.83 2.078 4.83h-4.156z"/>
       <path id="Shape" fill="#fff" d="m60.793 31.513h4.241c3.124 0 5.656 2.532 5.656 5.656 0 3.123-2.532 5.655-5.656 5.655h-4.241v-11.311zm4.241 9.558c1.048 0.049 2.068-0.347 2.809-1.09 0.74-0.743 1.132-1.765 1.079-2.812 0.076-1.055-0.308-2.092-1.053-2.842-0.746-0.751-1.779-1.143-2.835-1.075h-2.276v7.819h2.276z"/>
       <path id="Shape" fill="#fff" d="m79.172 40.647h-5.301l-0.834 2.177h-2.178l4.44-11.311h2.46l4.439 11.311h-2.149l-0.877-2.177zm-4.792-1.754h4.241l-2.121-5.655-2.12 5.655z"/>
       <path id="Shape" fill="#fff" d="m87.245 38.597h-1.965v4.241h-1.979v-11.31h4.962c0.96-0.056 1.899 0.293 2.59 0.962 0.69 0.669 1.069 1.597 1.044 2.558 0.099 1.636-1.067 3.077-2.687 3.322l2.828 4.44h-2.276l-2.517-4.213zm0.749-5.345h-2.714v3.591h2.714c0.642 0 1.235-0.342 1.555-0.897 0.321-0.556 0.321-1.24 0-1.796-0.32-0.555-0.913-0.898-1.555-0.898z"/>
       <path id="Shape" fill="#fff" d="m100.96 40.647h-5.359l-0.877 2.177h-2.135l4.44-11.311h2.474l4.437 11.311h-2.15l-0.83-2.177zm-4.822-1.739h4.242l-2.121-5.656-2.121 5.656z"/>
       <rect id="Rectangle-path" height=".69188" width="11.664" y="38.243" x="108.03" fill="#fff"/>
       <rect id="Rectangle-path" height=".69188" width="11.664" y="38.243" x="43.828" fill="#fff"/>
      </g>
     </g>
    </g>
   </g>
  </g>
 </g>
</svg>
